<svg width="50" height="50" viewBox="0 0 50 50" fill="none" xmlns="http://www.w3.org/2000/svg">
<path d="M45 45C45 47.775 42.775 50 40 50C37.225 50 35 47.75 35 45C35 42.225 37.225 40 40 40C42.775 40 45 42.25 45 45ZM15 40C12.225 40 10 42.225 10 45C10 47.75 12.225 50 15 50C17.775 50 20 47.775 20 45C20 42.225 17.775 40 15 40ZM15.5 31.575L15.425 31.875C15.425 32.225 15.7 32.5 16.05 32.5H45V37.5H15C12.225 37.5 10 35.25 10 32.5C10 31.625 10.225 30.8 10.6 30.1L14 23.975L5 5H0V0H8.175L10.525 5H47.5C48.875 5 50 6.125 50 7.5C50 7.925 49.875 8.35 49.7 8.75L40.75 24.925C39.9 26.45 38.25 27.5 36.375 27.5H17.75L15.5 31.575ZM18.75 22.5H22.5V17.5H16.4L18.75 22.5ZM25 17.5V22.5H32.5V17.5H25ZM32.5 15V10H25V15H32.5ZM40.275 17.5H35V22.5H37.5L40.275 17.5ZM44.45 10H35V15H41.675L44.45 10ZM12.85 10L15.2 15H22.5V10H12.85Z" fill="black"/>
</svg>
