<svg width="51" height="46" viewBox="0 0 51 46" fill="none" xmlns="http://www.w3.org/2000/svg">
<path d="M25.75 38.875L25.5 39.125L25.225 38.875C13.35 28.1 5.5 20.975 5.5 13.75C5.5 8.75 9.25 5 14.25 5C18.1 5 21.85 7.5 23.175 10.9H27.825C29.15 7.5 32.9 5 36.75 5C41.75 5 45.5 8.75 45.5 13.75C45.5 20.975 37.65 28.1 25.75 38.875ZM36.75 0C32.4 0 28.225 2.025 25.5 5.2C22.775 2.025 18.6 0 14.25 0C6.55 0 0.5 6.025 0.5 13.75C0.5 23.175 9 30.9 21.875 42.575L25.5 45.875L29.125 42.575C42 30.9 50.5 23.175 50.5 13.75C50.5 6.025 44.45 0 36.75 0Z" fill="black"/>
</svg>
